<?xml version="1.0" standalone="no"?>
<!DOCTYPE svg PUBLIC "-//W3C//DTD SVG 20010904//EN"
 "http://www.w3.org/TR/2001/REC-SVG-20010904/DTD/svg10.dtd">
<svg version="1.0" xmlns="http://www.w3.org/2000/svg"
 width="256.000000pt" height="256.000000pt" viewBox="0 0 256.000000 256.000000"
 preserveAspectRatio="xMidYMid meet">
<metadata>
Created by potrace 1.15, written by Peter Selinger 2001-2017
</metadata>
<g transform="translate(0.000000,256.000000) scale(0.100000,-0.100000)"
fill="#000000" stroke="none">
<path d="M1048 2544 c-261 -47 -496 -173 -685 -367 -106 -109 -167 -193 -228
-313 -93 -181 -135 -365 -135 -584 0 -364 127 -668 383 -917 109 -106 193
-167 313 -228 181 -93 365 -135 584 -135 219 0 403 42 584 135 120 61 204 122
313 228 197 192 321 426 368 693 19 112 19 336 0 448 -33 186 -112 375 -221
527 -67 92 -213 237 -305 302 -144 102 -336 181 -515 212 -108 19 -350 18
-456 -1z m592 -642 l345 -127 3 -488 2 -488 -32 -13 c-18 -8 -178 -66 -356
-130 l-322 -116 -347 125 c-191 69 -351 131 -355 138 -10 16 -10 948 0 964 8
13 676 262 702 262 8 0 170 -57 360 -127z"/>
<path d="M1060 1819 c-118 -43 -222 -82 -230 -85 -8 -3 90 -44 218 -91 l232
-85 233 85 c127 47 225 88 217 91 -56 22 -451 166 -453 165 -1 0 -99 -36 -217
-80z"/>
<path d="M690 1262 l0 -377 251 -90 c138 -49 255 -91 260 -93 5 -2 9 149 9
371 0 348 -1 375 -17 382 -10 4 -115 42 -233 85 -118 43 -227 83 -242 89 l-28
11 0 -378z"/>
<path d="M1650 1559 c-118 -43 -234 -86 -257 -95 l-43 -16 0 -375 c0 -222 4
-373 9 -371 5 2 122 44 260 93 l251 90 0 378 c0 207 -1 377 -2 376 -2 0 -100
-36 -218 -80z"/>
</g>
</svg>
